 <svg  version="1.0" xmlns="http://www.w3.org/2000/svg"  width="300.000000pt" height="124.000000pt" viewBox="0 0 300.000000 124.000000"  preserveAspectRatio="xMidYMid meet">  <g transform="translate(0.000000,124.000000) scale(0.100000,-0.100000)" fill="#6f778a" stroke="none"> <path d="M468 710 c-65 -54 -59 -100 13 -100 47 0 51 -19 13 -57 -22 -22 -31 -24 -65 -19 -21 3 -39 3 -39 -2 0 -18 26 -32 58 -32 27 0 42 8 68 36 19 20 34 46 34 59 0 27 -32 49 -60 42 -10 -2 -24 -1 -31 3 -9 6 -4 17 21 40 27 25 40 31 63 26 23 -5 28 -3 25 12 -6 31 -58 27 -100 -8z"/> <path d="M605 643 c-37 -134 -41 -157 -24 -151 8 3 18 18 22 35 7 25 18 33 60 46 28 9 52 15 54 14 1 -2 -2 -20 -8 -41 -6 -21 -8 -40 -5 -43 12 -12 36 8 36 29 0 13 11 59 25 103 15 51 21 83 15 89 -14 14 -26 -2 -42 -55 -7 -26 -16 -47 -20 -48 -4 -1 -25 -8 -47 -16 -22 -7 -41 -11 -44 -8 -3 2 3 30 14 61 19 55 19 82 1 82 -5 0 -21 -44 -37 -97z"/> <path d="M1545 728 c-33 -99 -62 -225 -54 -233 12 -12 29 11 29 37 0 16 30 34 89 53 22 7 22 5 16 -39 -6 -38 -4 -46 8 -46 10 0 18 14 22 43 4 23 10 47 14 52 4 6 13 34 20 63 10 41 10 57 2 65 -15 15 -28 -4 -36 -55 -4 -20 -13 -42 -21 -49 -8 -6 -14 -9 -14 -6 0 4 -18 0 -40 -8 -45 -16 -46 -14 -25 45 8 23 15 53 15 66 0 25 -18 33 -25 12z"/> <path d="M279 703 c-17 -47 -70 -147 -84 -162 -12 -12 -15 -11 -20 10 -3 13 -4 56 -3 94 2 57 0 70 -12 70 -12 0 -15 -16 -17 -75 -4 -133 28 -176 81 -107 31 40 96 179 90 189 -10 16 -25 7 -35 -19z"/> <path d="M362 709 c-14 -36 -40 -129 -48 -172 -6 -35 -4 -39 12 -35 13 2 20 13 22 33 2 17 12 63 24 103 16 53 18 76 10 84 -8 8 -14 5 -20 -13z"/> <path d="M1046 719 c-29 -97 -48 -180 -43 -193 4 -9 17 -16 31 -16 37 0 116 37 116 55 0 19 -3 19 -50 -5 -36 -18 -70 -26 -70 -16 0 3 35 122 45 153 2 6 -3 17 -10 23 -12 10 -16 9 -19 -1z"/> <path d="M1950 703 c0 -16 -9 -62 -20 -103 -24 -90 -24 -90 -6 -90 16 0 26 21 26 56 0 22 4 25 32 22 25 -2 35 -11 51 -40 10 -21 25 -38 33 -38 25 0 15 40 -17 72 -27 28 -29 32 -14 41 31 17 55 47 55 67 0 27 -29 40 -89 40 -49 0 -51 -1 -51 -27z m107 -19 c4 -13 -40 -48 -75 -58 -20 -7 -21 -5 -13 16 5 13 12 31 15 41 4 14 14 17 38 15 17 -2 33 -8 35 -14z"/> <path d="M2683 718 c-5 -7 -22 -42 -36 -77 -32 -74 -62 -117 -72 -101 -4 6 -6 43 -5 83 3 95 2 97 -15 97 -12 0 -15 -16 -15 -84 0 -96 11 -136 38 -136 10 0 28 13 39 28 29 39 93 168 93 187 0 18 -14 20 -27 3z"/> <path d="M866 687 c-59 -63 -99 -177 -62 -177 8 0 16 16 20 39 5 35 9 39 43 45 64 10 64 10 48 -35 -18 -51 -19 -49 3 -49 26 0 61 147 44 185 -17 37 -57 33 -96 -8z m69 -27 c0 -18 -7 -26 -33 -32 -51 -13 -56 -6 -22 30 34 37 55 38 55 2z"/> <path d="M1418 714 c-3 -3 -19 -6 -34 -7 -23 -2 -30 -8 -32 -27 -2 -14 -12 -56 -24 -93 -11 -38 -18 -70 -15 -73 2 -3 20 -7 38 -10 25 -4 43 0 69 18 45 31 51 62 13 81 l-27 15 36 15 c37 16 58 53 43 76 -6 11 -57 15 -67 5z m32 -39 c0 -14 -48 -45 -69 -45 -14 0 -2 32 17 48 22 17 52 15 52 -3z m-26 -96 c13 -12 -9 -35 -45 -48 -31 -11 -36 -2 -23 46 5 19 11 22 33 17 14 -4 30 -10 35 -15z"/> <path d="M1781 685 c-37 -43 -81 -126 -81 -155 0 -35 33 -20 41 18 8 41 6 40 58 48 43 7 44 7 37 -17 -18 -58 -19 -69 -3 -69 21 0 40 68 41 145 1 60 1 60 -30 63 -25 2 -37 -4 -63 -33z m69 -24 c0 -25 -4 -29 -37 -34 -20 -4 -38 -5 -40 -3 -7 7 49 66 63 66 9 0 14 -11 14 -29z"/> <path d="M2184 688 c-21 -18 -46 -52 -56 -75 -17 -39 -18 -45 -3 -73 12 -24 22 -30 48 -30 57 0 116 54 117 108 0 25 -8 27 -61 10 -22 -6 -39 -17 -39 -26 0 -14 13 -13 53 3 29 12 19 -11 -18 -44 -42 -36 -46 -37 -69 -12 -17 18 -17 21 -1 55 17 35 77 96 95 96 5 0 12 -4 15 -10 10 -17 25 -11 25 10 0 34 -61 27 -106 -12z"/> <path d="M2401 703 c-32 -28 -91 -134 -91 -165 0 -41 26 -36 34 7 8 40 10 42 64 51 l41 6 -8 -28 c-5 -16 -12 -37 -16 -46 -5 -14 -2 -18 12 -18 22 0 37 40 49 127 7 59 -4 83 -41 83 -13 0 -32 -8 -44 -17z m57 -40 c-2 -21 -10 -29 -37 -35 -45 -12 -50 -3 -16 32 36 38 57 39 53 3z"/> <path d="M2783 692 c-34 -34 -83 -129 -83 -160 0 -36 28 -26 36 13 7 41 6 41 63 50 40 7 43 6 37 -11 -18 -46 -19 -74 -3 -74 25 0 56 132 43 184 -9 37 -55 35 -93 -2z m67 -31 c0 -25 -4 -29 -37 -34 -20 -4 -39 -4 -42 -2 -7 8 51 65 66 65 8 0 13 -12 13 -29z"/> </g> </svg> 